<?xml version="1.0" encoding="UTF-8" standalone="no"?>
<!-- Created with Inkscape (http://www.inkscape.org/) -->

<svg
   xmlns:dc="http://purl.org/dc/elements/1.1/"
   xmlns:cc="http://creativecommons.org/ns#"
   xmlns:rdf="http://www.w3.org/1999/02/22-rdf-syntax-ns#"
   xmlns:svg="http://www.w3.org/2000/svg"
   xmlns="http://www.w3.org/2000/svg"
   xmlns:sodipodi="http://sodipodi.sourceforge.net/DTD/sodipodi-0.dtd"
   xmlns:inkscape="http://www.inkscape.org/namespaces/inkscape"
   width="103"
   height="103"
   id="svg3535"
   version="1.1"
   inkscape:version="0.48.5 r10040"
   sodipodi:docname="logo.svg"
   inkscape:export-filename="logo.png"
   inkscape:export-xdpi="349.51456"
   inkscape:export-ydpi="349.51456">
  <defs
     id="defs3537">
    <clipPath
       clipPathUnits="userSpaceOnUse"
       id="clipPath140">
      <path
         inkscape:connector-curvature="0"
         d="m 0,595.28 841.89,0 L 841.89,0 0,0 0,595.28 z"
         id="path142" />
    </clipPath>
  </defs>
  <sodipodi:namedview
     id="base"
     pagecolor="#ffffff"
     bordercolor="#666666"
     borderopacity="1.0"
     inkscape:pageopacity="0.0"
     inkscape:pageshadow="2"
     inkscape:zoom="7.919596"
     inkscape:cx="53.009547"
     inkscape:cy="51.204256"
     inkscape:document-units="px"
     inkscape:current-layer="g3620"
     showgrid="false"
     width="90px"
     inkscape:window-width="1596"
     inkscape:window-height="1143"
     inkscape:window-x="0"
     inkscape:window-y="36"
     inkscape:window-maximized="0"
     fit-margin-top="0"
     fit-margin-left="0"
     fit-margin-right="0"
     fit-margin-bottom="0" />
  <metadata
     id="metadata3540">
    <rdf:RDF>
      <cc:Work
         rdf:about="">
        <dc:format>image/svg+xml</dc:format>
        <dc:type
           rdf:resource="http://purl.org/dc/dcmitype/StillImage" />
        <dc:title></dc:title>
      </cc:Work>
    </rdf:RDF>
  </metadata>
  <g
     inkscape:label="Layer 1"
     inkscape:groupmode="layer"
     id="layer1"
     transform="translate(5.2850168,-944.1263)">
    <g
       id="g3620"
       transform="translate(3.2448674e-6,-12.49996)">
      <g
         transform="translate(-560.16052,929.29226)"
         id="g3631">
        <g
           id="Layer_4">
          <path
             d="m 657.875,116.143 c 0,1.887 -1.53,3.417 -3.417,3.417 h -96.165 c -1.887,0 -3.417,-1.53 -3.417,-3.417 V 41.525 c 0,-1.887 1.53,-3.417 3.417,-3.417 h 96.165 c 1.887,0 3.417,1.53 3.417,3.417 v 74.618 z"
             id="path3185"
             inkscape:connector-curvature="0"
             style="fill:#0000b4" />
        </g>
        <path
           id="path146-4_1_"
           inkscape:connector-curvature="0"
           d="m 569.292,68.376 15.938,-17.188 43.125,3.438 17.5,13.75 -39.479,36.875 -37.084,-36.875 z"
           style="fill:#ddb100" />
        <path
           id="path150-0_1_"
           inkscape:connector-curvature="0"
           d="m 606.375,100.955 c -4.682,-0.095 -32.359,-30.489 -32.299,-32.55 0.059,-2.06 10.916,-10.29 13.612,-11.487 2.696,-1.198 9.148,-1.25 9.148,-1.25 h 19.079 c -2.561,0 7.561,0.069 10.735,1.9 3.175,1.831 13.282,8.836 13.275,10.838 -0.009,2.001 -28.868,32.644 -33.55,32.549 M 630.33,49.73 c -2.445,-0.885 -12.566,-1.25 -12.566,-1.25 h -22.776 c 0,0 -9.751,0.416 -12.568,1.25 -2.816,0.834 -20.211,16.823 -20.42,18.75 -0.209,1.927 39.444,42.709 44.375,42.709 4.931,0 44.271,-40.261 44.375,-42.709 0.104,-2.448 -17.976,-17.865 -20.42,-18.75"
           style="fill:#cc2a2a" />
        <text
           y="87.125298"
           x="592.3125"
           font-size="37.5"
           id="text3189"
           style="font-size:37.5px;fill:#cc2a2a;font-family:Lemon-Regular">
          <tspan
             id="tspan3619"
             style="font-style:normal;font-variant:normal;font-weight:normal;font-stretch:normal;font-family:Lemon;-inkscape-font-specification:Lemon">R</tspan>
        </text>
      </g>
      <flowRoot
         xml:space="preserve"
         id="flowRoot3675"
         style="font-size:8px;font-style:normal;font-variant:normal;font-weight:normal;font-stretch:normal;line-height:125%;letter-spacing:0px;word-spacing:0px;fill:#000000;fill-opacity:1;stroke:none;font-family:Monospace;-inkscape-font-specification:Monospace"
         transform="translate(-3.2448674e-6,974.8622)"><flowRegion
           id="flowRegion3677"><rect
             id="rect3679"
             width="127.27922"
             height="112.63201"
             x="-131.82491"
             y="-8.2373343" /></flowRegion><flowPara
           id="flowPara3681"></flowPara></flowRoot>    </g>
  </g>
</svg>
